<?xml version="1.0" encoding="utf-8"?>
<!DOCTYPE svg PUBLIC "-//W3C//DTD SVG 1.1//EN" "http://www.w3.org/Graphics/SVG/1.1/DTD/svg11.dtd">
<svg version="1.1" id="Layer_1" xmlns="http://www.w3.org/2000/svg" xmlns:xlink="http://www.w3.org/1999/xlink" x="0px" y="0px"
	 viewBox="0 0 800 694.087" enable-background="new 0 0 800 694.087" xml:space="preserve">
<g id="nyt_x5F_exporter_x5F_info" display="none">
</g>
<g id="Layer_1_2_">
	<g>
		<g>
			<g enable-background="new    ">
				<g>
					<g>
						<path id="SVGID_25_" fill="#737678" d="M299.222,131.957v2.525c0,2.159-1.771,3.903-3.947,3.903v-2.524
							C297.449,135.861,299.222,134.119,299.222,131.957z"/>
					</g>
					<g>
						<defs>
							<path id="SVGID_1_" d="M299.222,131.957v2.525c0,2.159-1.771,3.903-3.947,3.903v-2.524
								C297.449,135.861,299.222,134.119,299.222,131.957z"/>
						</defs>
						<clipPath id="SVGID_2_">
							<use xlink:href="#SVGID_1_"  overflow="visible"/>
						</clipPath>
						<g clip-path="url(#SVGID_2_)" enable-background="new    ">
							<path fill="#737678" d="M299.222,131.957v2.525c0,0.188-0.017,0.375-0.041,0.557v-2.525
								C299.205,132.334,299.222,132.148,299.222,131.957"/>
							<path fill="#737678" d="M299.181,132.514v2.525c-0.029,0.215-0.078,0.424-0.146,0.629v-2.527
								C299.101,132.939,299.15,132.729,299.181,132.514"/>
							<path fill="#737678" d="M299.035,133.141v2.527c-0.076,0.236-0.176,0.467-0.295,0.682v-2.523
								C298.859,133.609,298.959,133.379,299.035,133.141"/>
							<path fill="#737678" d="M298.74,133.826v2.522c-0.67,1.216-1.974,2.037-3.468,2.037v-2.524
								C296.767,135.861,298.07,135.039,298.74,133.826"/>
						</g>
					</g>
				</g>
				<g>
					<polygon fill="#737678" points="296.438,135.119 295.272,138.387 244.783,138.387 243.814,135.244 					"/>
				</g>
				<g>
					<g>
						<path id="SVGID_27_" fill="#737678" d="M244.783,135.861v2.524c-2.164,0-3.936-1.744-3.936-3.903v-2.525
							C240.847,134.119,242.619,135.861,244.783,135.861z"/>
					</g>
					<g>
						<defs>
							<path id="SVGID_3_" d="M244.783,135.861v2.524c-2.164,0-3.936-1.744-3.936-3.903v-2.525
								C240.847,134.119,242.619,135.861,244.783,135.861z"/>
						</defs>
						<clipPath id="SVGID_4_">
							<use xlink:href="#SVGID_3_"  overflow="visible"/>
						</clipPath>
						<g clip-path="url(#SVGID_4_)" enable-background="new    ">
							<path fill="#737678" d="M244.783,135.861v2.524c-2.164,0-3.936-1.744-3.936-3.903v-2.525
								C240.847,134.119,242.619,135.861,244.783,135.861"/>
						</g>
					</g>
				</g>
				<g>
					<path fill="#C5C6C7" d="M295.272,82.125c2.177,0,3.947,1.756,3.947,3.918v45.914c0,2.162-1.771,3.904-3.947,3.904h-50.489
						c-2.164,0-3.936-1.742-3.936-3.904V86.043c0-2.162,1.771-3.918,3.936-3.918H295.272z"/>
				</g>
			</g>
		</g>
		<g>
			<g>
				<g>
					<path fill="#FFFFFF" d="M286.5,86.666c0-0.9,0.729-1.625,1.634-1.625h6.284c0.908,0,1.638,0.725,1.638,1.625v2.604
						c0,0.895-0.729,1.623-1.638,1.623h-6.284c-0.902,0-1.634-0.729-1.634-1.623V86.666z M272.397,86.666
						c0-0.9,0.729-1.625,1.632-1.625h6.282c0.906,0,1.638,0.725,1.638,1.625v2.604c0,0.895-0.729,1.623-1.638,1.623h-6.282
						c-0.902,0-1.632-0.729-1.632-1.623V86.666z M258.297,86.666c0-0.9,0.727-1.625,1.631-1.625h6.281
						c0.904,0,1.637,0.725,1.637,1.625v2.604c0,0.895-0.732,1.623-1.637,1.623h-6.281c-0.904,0-1.631-0.729-1.631-1.623V86.666z
						 M244.189,86.666c0-0.9,0.732-1.625,1.635-1.625h6.281c0.906,0,1.641,0.725,1.641,1.625v2.604c0,0.895-0.734,1.623-1.641,1.623
						h-6.281c-0.902,0-1.635-0.729-1.635-1.623V86.666z M253.746,131.326c0,0.899-0.734,1.629-1.641,1.629h-6.281
						c-0.902,0-1.635-0.729-1.635-1.629v-2.601c0-0.899,0.732-1.625,1.635-1.625h6.281c0.906,0,1.641,0.726,1.641,1.625V131.326z
						 M267.846,131.326c0,0.899-0.732,1.629-1.637,1.629h-6.281c-0.904,0-1.631-0.729-1.631-1.629v-2.601
						c0-0.899,0.727-1.625,1.631-1.625h6.281c0.904,0,1.637,0.726,1.637,1.625V131.326z M281.949,131.326
						c0,0.899-0.729,1.629-1.638,1.629h-6.282c-0.902,0-1.632-0.729-1.632-1.629v-2.601c0-0.899,0.729-1.625,1.632-1.625h6.282
						c0.906,0,1.638,0.726,1.638,1.625V131.326z M296.056,131.326c0,0.899-0.729,1.629-1.638,1.629h-6.284
						c-0.902,0-1.634-0.729-1.634-1.629v-2.601c0-0.899,0.729-1.625,1.634-1.625h6.284c0.908,0,1.638,0.726,1.638,1.625V131.326z
						 M295.234,124.48h-50.388c-0.49,0-0.879-0.393-0.879-0.873c0-0.479,0.389-0.871,0.879-0.871h50.388
						c0.483,0,0.873,0.392,0.873,0.871C296.107,124.088,295.72,124.48,295.234,124.48z M262.248,108.108
						c0.408-3.654,3.314-6.539,7-6.947v6.947H262.248z M269.248,109.85v6.953c-3.686-0.412-6.592-3.295-7-6.953H269.248z
						 M260.443,108.108h-1.506c0.426-5.459,4.807-9.811,10.311-10.236v1.496C264.568,99.795,260.867,103.467,260.443,108.108z
						 M260.443,109.85c0.424,4.646,4.125,8.32,8.805,8.742v1.494c-5.504-0.422-9.885-4.773-10.311-10.236H260.443z M278.002,108.108
						h-7.004v-6.947C274.683,101.565,277.597,104.451,278.002,108.108z M270.998,99.367v-1.496c5.5,0.422,9.884,4.775,10.312,10.236
						h-1.502C279.384,103.467,275.679,99.785,270.998,99.367z M278.002,109.85c-0.405,3.66-3.317,6.547-7.004,6.953v-6.953H278.002z
						 M279.806,109.85h1.502c-0.428,5.463-4.811,9.816-10.311,10.236v-1.494C275.679,118.172,279.384,114.496,279.806,109.85z
						 M295.234,94.951h-50.388c-0.49,0-0.879-0.391-0.879-0.871c0-0.482,0.389-0.867,0.879-0.867h50.388
						c0.483,0,0.873,0.385,0.873,0.867C296.107,94.561,295.72,94.951,295.234,94.951z"/>
				</g>
			</g>
		</g>
	</g>
</g>
<g id="nyt_x5F_exporter_x5F_info_1_" display="none">
</g>
<g id="nyt_x5F_exporter_x5F_info_2_" display="none">
</g>
<g id="Layer_1_4_">
	<g>
		<polygon fill="#8C3123" points="196.542,126.683 221.525,132.728 221.525,85.821 196.542,91.87 		"/>
		<polygon fill="#E05243" points="221.525,85.821 226.326,88.221 226.326,130.343 221.525,132.741 		"/>
		<polygon fill="#E05243" points="207.439,94.185 196.542,91.489 196.542,73.329 207.439,78.777 		"/>
		<polygon fill="#E05243" points="196.542,145.329 207.437,139.884 207.437,124.476 196.542,127.17 		"/>
		<polygon fill="#E05243" points="207.439,117.043 196.542,118.431 196.542,100.269 207.439,101.636 		"/>
		<polygon fill="#E05243" points="196.542,126.683 171.558,132.728 171.558,85.821 196.542,91.87 		"/>
		<polygon fill="#8C3123" points="171.558,85.821 166.758,88.221 166.758,130.343 171.558,132.741 		"/>
		<polygon fill="#8C3123" points="185.648,94.185 196.542,91.489 196.542,73.329 185.648,78.777 		"/>
		<polygon fill="#8C3123" points="196.542,145.329 185.646,139.884 185.646,124.476 196.542,127.17 		"/>
		<polygon fill="#8C3123" points="185.648,117.043 196.542,118.431 196.542,100.269 185.648,101.636 		"/>
		<polygon fill="#5E1F18" points="207.439,94.185 196.542,96.171 185.648,94.185 196.542,91.489 		"/>
		<polygon fill="#F2B0A9" points="207.439,124.474 196.542,122.476 185.648,124.474 196.542,127.187 		"/>
	</g>
</g>
<g id="nyt_x5F_exporter_x5F_info_3_" display="none">
</g>
<g id="Layer_1_3_">
	<g>
		<polygon fill="#F58536" points="207.375,398.147 200.406,399.737 200.406,354.604 207.375,356.197 		"/>
		<polygon fill="#F58536" points="216.07,400.812 207.375,403.282 207.375,351.121 216.07,353.59 		"/>
		<polygon fill="#F58536" points="227.225,403.549 216.07,407.631 216.07,346.773 227.225,350.854 		"/>
		<polygon fill="#F58536" points="257.049,398.283 227.225,413.195 227.225,341.195 257.049,356.107 		"/>
		<polygon fill="#9D5025" points="221.279,344.168 227.225,341.195 227.225,413.195 221.279,410.223 		"/>
		<polygon fill="#9D5025" points="211.469,349.073 216.07,346.772 216.07,407.618 211.469,405.317 		"/>
		<polygon fill="#9D5025" points="203.709,352.953 207.375,351.12 207.375,403.271 203.709,401.437 		"/>
		<polygon fill="#9D5025" points="200.406,354.604 197.416,356.1 197.416,398.293 200.406,399.786 		"/>
	</g>
</g>
<g id="Amazon_CloudSearch_1_">
	<g>
		<polygon fill="#D9A741" points="649.79,83.692 619.314,87.979 619.316,60.388 649.792,64.681 		"/>
		<polygon fill="#876929" points="615.509,61.53 645.333,52.585 645.333,38.187 615.509,53.095 		"/>
		<polygon fill="#876929" points="615.521,86.841 645.329,95.786 645.327,110.187 615.521,95.28 		"/>
		<polygon fill="#D9A741" points="675.153,61.537 645.333,52.585 645.333,38.187 675.155,53.101 		"/>
		<polygon fill="#D9A741" points="675.137,86.847 645.329,95.786 645.327,110.187 675.137,95.286 		"/>
		<polygon fill="#876929" points="619.314,97.177 615.505,95.272 615.509,53.095 619.318,51.19 		"/>
		<polygon fill="#876929" points="634.348,81.948 645.329,83.347 645.331,65.019 634.35,66.416 		"/>
		<polygon fill="#876929" points="623.284,80.54 630.411,81.446 630.413,66.916 623.284,67.824 		"/>
		<polygon fill="#624A1E" points="619.316,60.388 645.333,52.585 675.153,61.537 649.811,64.683 		"/>
		<polygon fill="#FAD791" points="619.314,87.979 645.329,95.786 675.137,86.847 649.79,83.692 		"/>
		<polygon fill="#D9A741" points="675.139,79.517 645.329,83.278 645.331,65.019 675.139,68.815 		"/>
	</g>
</g>
<g id="Layer_1_5_">
	<g>
		<polygon fill="#B7CA9D" points="679.63,436.296 647.823,431.623 615.992,436.302 647.803,447.584 		"/>
		<polygon fill="#759C3E" points="663.712,434.702 638.288,440.667 638.288,386.751 663.712,396.661 		"/>
		<polygon fill="#759C3E" points="646.775,434.088 627.738,437.433 627.738,398.609 646.775,402.891 		"/>
		<polygon fill="#4B612C" points="640.993,441.417 647.809,443.462 647.803,427.688 640.993,426.952 		"/>
		<polygon fill="#4B612C" points="638.288,440.606 630.868,438.38 630.868,390.462 638.288,386.752 		"/>
		<polygon fill="#4B612C" points="647.803,447.584 615.992,436.302 615.992,442.846 647.803,458.751 		"/>
		<polygon fill="#759C3E" points="679.63,442.838 647.803,458.751 647.803,447.584 679.63,436.296 		"/>
		<polygon fill="#4B612C" points="622.361,435.751 627.738,437.364 627.738,398.608 622.361,400.665 		"/>
		<polygon fill="#759C3E" points="670.691,425.454 647.803,427.687 647.809,443.462 670.691,436.573 		"/>
		<polygon fill="#B7CA9D" points="670.691,425.454 662.979,425.454 640.993,426.952 647.803,427.687 		"/>
	</g>
</g>
<g>
	<path fill="none" stroke="#E05243" stroke-width="2" stroke-miterlimit="10" d="M347,192c0,5.523-4.477,10-10,10H135
		c-5.523,0-10-4.477-10-10V62c0-5.523,4.477-10,10-10h202c5.523,0,10,4.477,10,10V192z"/>
</g>
<g>
	<path fill="none" stroke="#E05243" stroke-width="2" stroke-miterlimit="10" d="M435,637c0,5.522-4.478,10-10,10H48
		c-5.523,0-10-4.478-10-10V312c0-5.523,4.477-10,10-10h377c5.522,0,10,4.477,10,10V637z"/>
</g>
<g>
	<path fill="none" stroke="#D9A741" stroke-width="2" stroke-miterlimit="10" d="M759,192c0,5.523-4.478,10-10,10H547
		c-5.522,0-10-4.477-10-10V39c0-5.523,4.478-10,10-10h202c5.522,0,10,4.477,10,10V192z"/>
</g>
<g>
	<path fill="none" stroke="#759C3E" stroke-width="2" stroke-miterlimit="10" d="M759,587c0,5.523-4.478,10-10,10H547
		c-5.522,0-10-4.477-10-10V381c0-5.523,4.478-10,10-10h202c5.522,0,10,4.477,10,10V587z"/>
</g>
<rect x="549.11" y="122.33" fill="none" width="197.57" height="74.062"/>
<text transform="matrix(1 0 0 1 549.1104 136.7095)"><tspan x="0" y="0" font-family="'Source Sans Pro'" font-weight="300" font-size="20">SQS used to maintain a </tspan><tspan x="0" y="24" font-family="'Source Sans Pro'" font-weight="300" font-size="20">list of videos yet to be </tspan><tspan x="0" y="48" font-family="'Source Sans Pro'" font-weight="300" font-size="20">encoded</tspan></text>
<rect x="549.11" y="470.33" fill="none" width="197.57" height="118.765"/>
<text transform="matrix(1 0 0 1 549.1104 484.7095)"><tspan x="0" y="0" font-family="'Source Sans Pro'" font-weight="300" font-size="20">CloudWatch monitors </tspan><tspan x="0" y="24" font-family="'Source Sans Pro'" font-weight="300" font-size="20">SQS Queue size and </tspan><tspan x="0" y="48" font-family="'Source Sans Pro'" font-weight="300" font-size="20">spins up the apropriate </tspan><tspan x="0" y="72" font-family="'Source Sans Pro'" font-weight="300" font-size="20">number of EC2 Spot </tspan><tspan x="0" y="96" font-family="'Source Sans Pro'" font-weight="300" font-size="20">Instances</tspan></text>
<rect x="54.217" y="440.326" fill="none" width="364.373" height="206.261"/>
<text transform="matrix(1 0 0 1 54.2168 454.7061)"><tspan x="0" y="0" font-family="'Source Sans Pro'" font-weight="300" font-size="20">EC2 Spot instances with daemon processes </tspan><tspan x="0" y="24" font-family="'Source Sans Pro'" font-weight="300" font-size="20">running on them to encode and watermark </tspan><tspan x="0" y="48" font-family="'Source Sans Pro'" font-weight="300" font-size="20">videos. These daemons poll SQS for </tspan><tspan x="0" y="72" font-family="'Source Sans Pro'" font-weight="300" font-size="20">information about the next video to be </tspan><tspan x="0" y="96" font-family="'Source Sans Pro'" font-weight="300" font-size="20">encoded. Based on this information, videos </tspan><tspan x="0" y="120" font-family="'Source Sans Pro'" font-weight="300" font-size="20">are downloaded from S3, encoded and </tspan><tspan x="0" y="144" font-family="'Source Sans Pro'" font-weight="300" font-size="20">saved. On success, the appropriate massage </tspan><tspan x="0" y="168" font-family="'Source Sans Pro'" font-weight="300" font-size="20">is removed from SQS.</tspan></text>
<rect x="153.907" y="164.597" fill="none" width="164.992" height="22.5"/>
<text transform="matrix(1 0 0 1 153.9072 178.9771)" font-family="'Source Sans Pro'" font-weight="300" font-size="20">Videos Stored in S3</text>
<line fill="none" stroke="#828282" stroke-width="3" stroke-miterlimit="10" stroke-dasharray="8" x1="537.014" y1="202.056" x2="433.335" y2="305.736"/>
<line fill="none" stroke="#828282" stroke-width="3" stroke-miterlimit="10" stroke-dasharray="8" x1="537" y1="505.5" x2="435" y2="505.5"/>
<g>
	<g>
		<line fill="none" stroke="#828282" stroke-width="3" stroke-miterlimit="10" x1="185.5" y1="202" x2="185.5" y2="292"/>
		<g>
			<polygon fill="#828282" points="178.769,290 185.5,301.657 192.231,290 			"/>
		</g>
	</g>
</g>
<g>
	<g>
		<line fill="none" stroke="#828282" stroke-width="3" stroke-miterlimit="10" x1="280.5" y1="302" x2="280.5" y2="212"/>
		<g>
			<polygon fill="#828282" points="287.231,214 280.5,202.343 273.769,214 			"/>
		</g>
	</g>
</g>
<line fill="none" stroke="#828282" stroke-width="3" stroke-miterlimit="10" stroke-dasharray="8" x1="650.5" y1="202" x2="650.5" y2="371"/>
</svg>
