<?xml version="1.0" encoding="utf-8"?>
<!-- Generator: Adobe Illustrator 16.0.4, SVG Export Plug-In . SVG Version: 6.00 Build 0)  -->
<!DOCTYPE svg PUBLIC "-//W3C//DTD SVG 1.1//EN" "http://www.w3.org/Graphics/SVG/1.1/DTD/svg11.dtd">
<svg version="1.1" id="Layer_1" xmlns="http://www.w3.org/2000/svg" xmlns:xlink="http://www.w3.org/1999/xlink" x="0px" y="0px"
	 width="602px" height="146px" viewBox="0 0 602 146" enable-background="new 0 0 602 146" xml:space="preserve">
<g>
	<g>
		<g>
			<g>
				<g>
					<polygon points="0,21.593 22.538,21.593 22.538,103.626 64.268,103.626 64.268,124.407 0,124.407 					"/>
					<g>
						<path d="M74.223,54.705h21.662v69.671H74.223V54.705z M85.054,20.069c6.937,0,12.567,5.626,12.567,12.551
							c0,6.939-5.631,12.55-12.567,12.55c-6.929,0-12.56-5.61-12.56-12.55C72.494,25.696,78.125,20.069,85.054,20.069"/>
					</g>
					<polygon points="186.437,21.585 208.083,21.585 208.083,83.034 232.615,54.674 259.167,54.674 230.754,86.934 258.573,124.407 
						231.349,124.407 208.364,89.966 208.083,89.966 208.083,124.407 186.437,124.407 					"/>
					<path d="M107.866,54.713h20.794v9.526h0.29c2.886-5.486,9.963-11.254,20.505-11.254c21.952,0,25.995,14.427,25.995,33.183
						v38.208h-21.662V90.498c0-8.081-0.149-18.467-11.269-18.467c-11.261,0-12.99,8.808-12.99,17.888v34.457h-21.662V54.713z"/>
					<path d="M304.762,81.44c0.137-7.214-5.492-13.278-13.297-13.278c-9.525,0-14.718,6.495-15.296,13.278H304.762z
						 M323.104,112.317c-6.945,8.799-18.343,13.856-29.606,13.856c-21.663,0-38.992-14.435-38.992-36.802
						c0-22.366,17.33-36.793,38.992-36.793c20.225,0,32.921,14.427,32.921,36.793v6.784h-50.251
						c1.721,8.221,7.946,13.566,16.313,13.566c7.085,0,11.837-3.61,15.451-8.519L323.104,112.317z"/>
					<path d="M371.547,71.555c-10.827,0-17.333,7.221-17.333,17.74c0,10.549,6.506,17.755,17.333,17.755
						c10.839,0,17.33-7.206,17.33-17.755C388.877,78.775,382.386,71.555,371.547,71.555 M408.819,124.368h-19.942v-9.238h-0.282
						c-3.335,5.049-11.702,10.965-21.521,10.965c-20.801,0-34.518-14.997-34.518-36.215c0-19.482,12.133-37.379,32.062-37.379
						c8.962,0,17.326,2.453,22.241,9.238h0.281V21.585h21.679V124.368z"/>
				</g>
				<path fill="#007BB6" d="M565.713,0H441.298c-5.939,0-10.77,4.712-10.77,10.519v124.946c0,5.814,4.83,10.535,10.77,10.535
					h124.415c5.951,0,10.815-4.721,10.815-10.535V10.519C576.528,4.712,571.664,0,565.713,0z"/>
				<path fill="#FFFFFF" d="M452.128,54.736h21.689v69.671h-21.689V54.736z M462.979,20.101c6.933,0,12.56,5.626,12.56,12.551
					c0,6.932-5.627,12.559-12.56,12.559c-6.96,0-12.571-5.627-12.571-12.559C450.407,25.727,456.019,20.101,462.979,20.101"/>
				<path fill="#FFFFFF" d="M487.413,54.736h20.771v9.519h0.297c2.89-5.479,9.964-11.254,20.505-11.254
					c21.925,0,25.979,14.427,25.979,33.19v38.216h-21.65V90.529c0-8.081-0.156-18.475-11.262-18.475
					c-11.276,0-12.997,8.8-12.997,17.888v34.465h-21.643V54.736z"/>
			</g>
		</g>
	</g>
	<g>
		<polygon points="582.793,115.674 585.597,115.674 585.597,124.407 587.122,124.407 587.122,115.674 589.918,115.674 
			589.918,114.149 582.793,114.149 		"/>
		<polygon points="599.83,114.149 596.839,121.68 593.844,114.149 591.673,114.149 591.673,124.407 593.19,124.407 593.19,116.604 
			596.33,124.407 597.343,124.407 600.483,116.604 600.483,124.407 602,124.407 602,114.149 		"/>
	</g>
</g>
</svg>
