<?xml version="1.0" encoding="utf-8"?>
<!-- Generator: Adobe Illustrator 16.0.4, SVG Export Plug-In . SVG Version: 6.00 Build 0)  -->
<!DOCTYPE svg PUBLIC "-//W3C//DTD SVG 1.1//EN" "http://www.w3.org/Graphics/SVG/1.1/DTD/svg11.dtd">
<svg version="1.1" id="logo" xmlns="http://www.w3.org/2000/svg" xmlns:xlink="http://www.w3.org/1999/xlink" x="0px" y="0px"
	 width="441.385px" height="101.598px" viewBox="0 0 441.385 101.598" enable-background="new 0 0 441.385 101.598"
	 xml:space="preserve">
<g>
	<g>
		<path fill="#010101" d="M14.75,90.418c-6.263,0-10.77-1.464-14.75-5.502l4.214-4.156c3.044,3.044,6.38,3.98,10.653,3.98
			c5.444,0,8.604-2.342,8.604-6.381c0-1.814-0.527-3.336-1.639-4.331c-1.054-0.995-2.107-1.404-4.566-1.756l-4.917-0.702
			c-3.395-0.469-6.087-1.639-7.902-3.337c-2.049-1.932-3.044-4.565-3.044-7.96c0-7.258,5.268-12.233,13.931-12.233
			c5.502,0,9.365,1.405,12.936,4.741l-4.039,3.98c-2.575-2.459-5.561-3.22-9.072-3.22c-4.917,0-7.609,2.81-7.609,6.497
			c0,1.521,0.468,2.868,1.581,3.863c1.053,0.937,2.751,1.639,4.683,1.932l4.741,0.702c3.863,0.585,6.029,1.522,7.785,3.103
			c2.283,1.99,3.395,4.975,3.395,8.546C29.735,85.852,23.472,90.418,14.75,90.418z"/>
		<path fill="#010101" d="M46.356,90.067c-5.561,0-8.136-3.98-8.136-8.253V65.483h-3.395v-4.565h3.395v-9.014h5.971v9.014h5.736
			v4.565h-5.736v16.038c0,2.166,1.053,3.453,3.278,3.453h2.458v5.093H46.356z"/>
		<path fill="#010101" d="M73.34,90.067v-2.692c-2.166,2.166-4.214,3.044-7.902,3.044c-3.688,0-6.146-0.878-7.96-2.693
			c-1.522-1.58-2.341-3.862-2.341-6.38c0-4.975,3.453-8.546,10.243-8.546h7.843v-2.106c0-3.746-1.873-5.561-6.497-5.561
			c-3.278,0-4.858,0.761-6.497,2.868l-3.922-3.688c2.81-3.278,5.736-4.273,10.653-4.273c8.136,0,12.233,3.453,12.233,10.185v19.843
			H73.34z M73.223,76.956h-6.965c-3.512,0-5.327,1.58-5.327,4.272c0,2.693,1.698,4.215,5.444,4.215c2.283,0,3.98-0.176,5.561-1.697
			c0.878-0.878,1.288-2.283,1.288-4.391V76.956z"/>
		<path fill="#010101" d="M100.088,90.418c-6.673,0-13.229-4.098-13.229-15.219s6.556-15.16,13.229-15.16
			c4.097,0,6.965,1.171,9.775,4.156l-4.097,3.979c-1.873-2.048-3.336-2.81-5.678-2.81c-2.283,0-4.214,0.937-5.502,2.635
			c-1.288,1.639-1.756,3.746-1.756,7.199s0.468,5.619,1.756,7.258c1.288,1.697,3.219,2.634,5.502,2.634
			c2.341,0,3.805-0.761,5.678-2.81l4.097,3.922C107.054,89.189,104.186,90.418,100.088,90.418z"/>
		<path fill="#010101" d="M135.44,90.067l-8.312-13.696l-4.39,4.975v8.722h-5.97V48.391h5.97v25.696l11.531-13.696h7.258
			l-10.302,11.647l11.589,18.028H135.44z"/>
		<path fill="#205296" d="M148.959,90.067V48.391h27.452v7.259h-19.316v9.774h16.448v7.259h-16.448v10.126h19.316v7.258H148.959z"/>
		<path fill="#205296" d="M200.525,90.067l-5.619-9.131l-5.561,9.131h-9.131l10.536-15.569l-10.126-14.926h9.131l5.151,8.721
			l5.209-8.721h9.131L199.12,74.498l10.536,15.569H200.525z"/>
		<path fill="#205296" d="M225.576,90.418c-6.087,0-13.638-3.278-13.638-15.629c0-12.35,7.551-15.569,13.638-15.569
			c4.215,0,7.375,1.288,10.067,4.098l-5.15,5.15c-1.581-1.697-2.927-2.399-4.917-2.399c-1.814,0-3.219,0.644-4.332,1.99
			c-1.17,1.463-1.697,3.512-1.697,6.73c0,3.22,0.527,5.327,1.697,6.79c1.112,1.347,2.517,1.99,4.332,1.99
			c1.99,0,3.336-0.702,4.917-2.399l5.15,5.092C232.951,89.072,229.791,90.418,225.576,90.418z"/>
		<path fill="#205296" d="M259.056,90.067V71.454c0-4.039-2.575-5.385-4.976-5.385c-2.399,0-4.917,1.404-4.917,5.385v18.613h-7.609
			V48.391h7.609v13.99c2.049-2.107,4.624-3.161,7.317-3.161c6.672,0,10.185,4.683,10.185,11.121v19.726H259.056z"/>
		<path fill="#205296" d="M290.486,90.067v-2.634c-2.049,2.049-3.98,2.927-7.492,2.927c-3.454,0-5.971-0.878-7.785-2.692
			c-1.639-1.698-2.517-4.156-2.517-6.849c0-4.858,3.336-8.839,10.419-8.839h7.199v-1.521c0-3.337-1.639-4.8-5.678-4.8
			c-2.927,0-4.272,0.702-5.854,2.517l-4.858-4.741c2.985-3.277,5.912-4.214,11.005-4.214c8.546,0,12.994,3.629,12.994,10.77v20.077
			H290.486z M290.311,77.19h-6.029c-2.751,0-4.272,1.287-4.272,3.453c0,2.107,1.404,3.512,4.39,3.512c2.107,0,3.454-0.176,4.8-1.463
			c0.819-0.761,1.112-1.99,1.112-3.863V77.19z"/>
		<path fill="#205296" d="M323.848,90.067V71.629c0-4.156-2.634-5.561-5.033-5.561c-2.4,0-5.093,1.404-5.093,5.561v18.438h-7.609
			V59.572h7.435v2.81c1.989-2.107,4.799-3.161,7.608-3.161c3.044,0,5.503,0.995,7.2,2.692c2.458,2.458,3.102,5.326,3.102,8.663
			v19.491H323.848z"/>
		<path fill="#205296" d="M350.187,101.598c-4.683,0-7.901-0.937-11.062-3.98l4.741-4.8c1.697,1.639,3.395,2.342,5.971,2.342
			c4.565,0,6.146-3.22,6.146-6.322v-3.102c-1.99,2.224-4.272,3.043-7.258,3.043s-5.561-0.995-7.259-2.692
			c-2.867-2.868-3.102-6.789-3.102-12.116c0-5.326,0.234-9.189,3.102-12.058c1.698-1.697,4.332-2.692,7.317-2.692
			c3.219,0,5.326,0.878,7.434,3.22v-2.868h7.375v29.383C363.591,96.271,358.381,101.598,350.187,101.598z M350.947,66.069
			c-4.507,0-4.975,3.863-4.975,7.901c0,4.039,0.468,7.961,4.975,7.961c4.508,0,5.034-3.922,5.034-7.961
			C355.981,69.932,355.455,66.069,350.947,66.069z"/>
		<path fill="#205296" d="M378.105,77.19c0,3.922,2.4,6.789,6.673,6.789c3.336,0,4.976-0.936,6.907-2.867l4.624,4.507
			c-3.103,3.102-6.088,4.8-11.59,4.8c-7.199,0-14.106-3.278-14.106-15.629c0-9.95,5.385-15.569,13.287-15.569
			c8.487,0,13.287,6.204,13.287,14.574v3.396H378.105z M388.992,68.703c-0.819-1.814-2.517-3.161-5.092-3.161
			s-4.273,1.347-5.093,3.161c-0.468,1.112-0.644,1.932-0.702,3.277h11.59C389.637,70.634,389.461,69.815,388.992,68.703z"/>
	</g>
	<rect x="398.175" y="23.411" fill="#356DB6" width="43.21" height="8.887"/>
	<rect x="398.175" y="11.963" fill="#4AA2DA" width="43.21" height="8.889"/>
	<path fill="#90D8F5" d="M434.528,0h-29.503c-3.784,0-6.851,3.181-6.851,7.1v2.308h43.21V7.1C441.385,3.181,438.315,0,434.528,0z"/>
	<path fill="#1F5296" d="M398.175,34.802v2.308c0,3.919,3.066,7.1,6.851,7.1h18.454v9.386l9.057-9.386h1.992
		c3.787,0,6.856-3.181,6.856-7.1v-2.308H398.175z"/>
	<path opacity="0.15" fill="#FFFFFF" d="M398.175,34.802v2.308c0,3.919,3.066,7.1,6.851,7.1h1.256l9.078-9.408H398.175z"/>
	<polygon opacity="0.15" fill="#FFFFFF" points="437.396,11.963 398.175,11.963 398.175,20.852 428.819,20.852 	"/>
	<polygon opacity="0.15" fill="#FFFFFF" points="426.351,23.411 398.175,23.411 398.175,32.298 417.775,32.298 	"/>
</g>
</svg>
